<?xml version="1.0" encoding="UTF-8"?>
<!-- Generator: visioncortex VTracer 0.6.3 -->
<svg version="1.1" xmlns="http://www.w3.org/2000/svg" width="1280" height="1280">
<path d="M0 0 C0.99 -0.02 1.98 -0.03 2.99 -0.05 C7.51 -0.09 12.02 -0.13 16.54 -0.16 C18.92 -0.17 21.31 -0.2 23.69 -0.24 C27.12 -0.29 30.56 -0.32 33.99 -0.33 C35.59 -0.36 35.59 -0.36 37.22 -0.4 C44.61 -0.38 44.61 -0.38 47.88 2.54 C49.35 5.39 50.35 8.12 51.25 11.19 C54.02 18.7 57.02 26.1 60.12 33.48 C61.59 37.02 62.93 40.59 64.25 44.19 C68.04 54.36 71.91 64.48 76.13 74.48 C77.33 77.38 78.42 80.31 79.5 83.26 C80.35 85.47 81.32 87.6 82.31 89.76 C83.49 92.37 84.4 94.73 85.18 97.51 C87.13 104.26 90.13 110.63 92.93 117.07 C94.25 120.19 94.25 120.19 95.18 123.07 C96.08 125.7 97.09 128.11 98.25 130.63 C99.45 133.28 100.39 135.69 101.18 138.51 C103.13 145.26 106.13 151.63 108.93 158.07 C110.25 161.19 110.25 161.19 111.18 164.07 C112.35 167.51 113.8 170.76 115.29 174.07 C116.35 176.42 117.32 178.79 118.25 181.19 C120.47 177.86 121.22 175.06 122.25 171.19 C123.42 166.88 124.79 162.73 126.4 158.56 C127.84 154.55 129.03 150.47 130.27 146.39 C131.12 143.61 131.98 140.83 132.87 138.07 C133.09 137.38 133.31 136.7 133.54 136 C134.25 134.19 134.25 134.19 136.25 131.19 C136.71 129.29 137.18 127.38 137.63 125.47 C138.27 123.12 139.11 120.99 140.06 118.76 C141.96 114.17 143.38 109.52 144.75 104.76 C146.41 98.95 148.22 93.26 150.34 87.61 C151.75 83.84 152.99 80.02 154.25 76.19 C154.49 75.46 154.74 74.74 154.99 73.99 C156.31 70.1 157.54 66.2 158.68 62.26 C159.96 57.93 161.56 53.8 163.27 49.63 C165.41 44.28 167.08 38.79 168.68 33.26 C169.72 29.72 170.96 26.35 172.37 22.94 C174.58 17.74 174.58 17.74 175.25 12.19 C172.76 8.5 170.48 5.76 166.25 4.19 C166.25 3.2 166.25 2.21 166.25 1.19 C168.93 -0.15 171.02 0.05 174.03 0.03 C175.24 0.02 176.45 0.01 177.7 0 C179.67 -0 179.67 -0 181.68 -0.01 C183.04 -0.02 184.4 -0.02 185.75 -0.03 C188.6 -0.04 191.45 -0.04 194.29 -0.05 C197.94 -0.05 201.59 -0.08 205.24 -0.11 C208.05 -0.12 210.85 -0.13 213.66 -0.13 C215.66 -0.14 217.66 -0.15 219.66 -0.17 C220.87 -0.17 222.09 -0.17 223.34 -0.16 C224.94 -0.17 224.94 -0.17 226.58 -0.17 C229.56 0.24 230.45 0.84 232.25 3.19 C231.63 3.64 231.02 4.09 230.38 4.55 C224.19 8.93 224.19 8.93 220.25 15.19 C219.27 22.11 219.11 28.89 219.13 35.86 C219.13 37.56 219.13 37.56 219.13 39.3 C219.13 43.01 219.14 46.73 219.15 50.45 C219.15 53.03 219.15 55.62 219.15 58.21 C219.16 64.31 219.16 70.41 219.17 76.51 C219.19 83.45 219.19 90.4 219.2 97.35 C219.21 111.63 219.22 125.91 219.25 140.19 C219.87 139.76 220.5 139.33 221.15 138.88 C221.96 138.32 222.78 137.77 223.62 137.19 C224.43 136.64 225.25 136.08 226.08 135.51 C228.25 134.19 228.25 134.19 230.25 134.19 C230.25 133.53 230.25 132.87 230.25 132.19 C235.64 129.5 240.72 128.47 246.67 127.62 C249.23 127.33 249.23 127.33 251.25 126.19 C261.45 125.74 272.53 127.72 281.25 133.19 C283.73 136.91 283.31 139.45 282.93 143.69 C282.89 144.37 282.84 145.05 282.79 145.74 C282.55 148.75 282.2 151.33 281.25 154.19 C279.18 154.88 279.18 154.88 277.25 155.19 C276.24 154.07 275.24 152.95 274.25 151.82 C273.69 151.19 273.13 150.56 272.56 149.92 C271.25 148.19 271.25 148.19 271.25 146.19 C270.26 145.86 269.27 145.53 268.25 145.19 C268.25 144.53 268.25 143.87 268.25 143.19 C267.26 142.86 266.27 142.53 265.25 142.19 C265.25 141.53 265.25 140.87 265.25 140.19 C263.93 139.86 262.61 139.53 261.25 139.19 C261.25 138.53 261.25 137.87 261.25 137.19 C260.28 136.88 259.31 136.57 258.31 136.26 C255.25 135.19 255.25 135.19 254.25 134.19 C251.55 133.96 248.88 133.77 246.18 133.63 C245.43 133.59 244.67 133.54 243.89 133.5 C242.01 133.39 240.13 133.29 238.25 133.19 C237.92 134.18 237.59 135.17 237.25 136.19 C236.65 136.75 236.05 137.31 235.43 137.88 C226.77 147.04 225.99 160.66 225.93 172.63 C225.93 173.47 225.92 174.31 225.92 175.18 C225.98 180.19 226.7 184.38 228.25 189.19 C228.54 190.79 228.81 192.4 229.06 194.01 C229.98 198.88 231.85 202.83 234.22 207.16 C235.25 209.19 235.25 209.19 235.25 211.19 C236.24 211.52 237.23 211.85 238.25 212.19 C238.8 212.79 239.36 213.39 239.93 214.01 C246.52 220.23 253.01 220.64 261.76 220.63 C266.16 220.08 268.6 219.23 271.43 215.72 C275.42 209.23 274.69 202.06 274.5 194.69 C274.48 193.39 274.46 192.09 274.44 190.76 C274.4 187.57 274.33 184.38 274.25 181.19 C273.48 181.34 272.71 181.48 271.91 181.63 C265.85 182.7 260.15 183.43 254 183.32 C252.71 183.3 251.43 183.28 250.11 183.26 C249.16 183.24 248.22 183.22 247.25 183.19 C247.25 182.2 247.25 181.21 247.25 180.19 C257.92 178.19 268.45 176.89 279.31 176.44 C280.36 176.4 281.41 176.35 282.5 176.31 C289.97 176.06 289.97 176.06 292.25 177.19 C293.2 180.04 293.52 182.33 293.78 185.31 C293.87 186.31 293.96 187.31 294.05 188.34 C294.13 189.38 294.22 190.43 294.31 191.51 C294.4 192.54 294.49 193.57 294.58 194.64 C295.85 209.47 295.85 209.47 293.25 213.19 C288.8 217.19 288.8 217.19 286.25 217.19 C286.25 217.85 286.25 218.51 286.25 219.19 C284.94 219.8 283.62 220.41 282.31 221.01 C281.58 221.34 280.85 221.68 280.09 222.02 C279.15 222.41 278.21 222.8 277.25 223.19 C276.63 223.45 276.01 223.71 275.38 223.98 C268.71 226.54 262.39 226.68 255.31 226.63 C254.19 226.65 253.08 226.67 251.93 226.69 C245.15 226.69 236.4 226.35 231.25 221.19 C229.4 221.08 227.55 221.04 225.7 221.02 C224.52 221.01 223.33 220.99 222.11 220.98 C220.82 220.97 219.53 220.96 218.2 220.95 C216.19 220.92 214.17 220.9 212.16 220.87 C207.17 220.81 202.19 220.76 197.2 220.72 C193.74 220.68 190.28 220.64 186.81 220.6 C184.85 220.57 182.89 220.56 180.94 220.55 C179.74 220.53 178.54 220.51 177.31 220.5 C176.25 220.49 175.2 220.48 174.12 220.46 C171.15 220.18 168.94 219.44 166.25 218.19 C166.58 217.2 166.91 216.21 167.25 215.19 C168.9 214.86 170.55 214.53 172.25 214.19 C172.58 213.2 172.91 212.21 173.25 211.19 C173.91 211.19 174.57 211.19 175.25 211.19 C175.37 210.45 175.49 209.71 175.62 208.94 C176.25 206.19 176.25 206.19 177.27 204.47 C178.64 201.27 178.51 198.51 178.53 195.03 C178.53 193.95 178.53 193.95 178.54 192.84 C178.56 190.42 178.56 188 178.57 185.58 C178.57 183.85 178.58 182.11 178.6 180.38 C178.62 175.67 178.64 170.96 178.65 166.25 C178.67 161.33 178.69 156.4 178.72 151.48 C178.77 142.16 178.8 132.84 178.84 123.52 C178.87 112.91 178.92 102.29 178.97 91.68 C179.08 69.85 179.17 48.02 179.25 26.19 C178.59 26.19 177.93 26.19 177.25 26.19 C177.06 27.71 177.06 27.71 176.87 29.26 C175.95 35.07 174.21 40.34 172.1 45.83 C170.65 49.84 169.46 53.92 168.22 57.99 C167.37 60.77 166.52 63.55 165.62 66.32 C165.4 67 165.18 67.68 164.96 68.39 C164.25 70.19 164.25 70.19 162.25 73.19 C161.75 75.11 161.26 77.02 160.81 78.94 C159.85 82.77 158.53 86.47 157.25 90.19 C155.44 95.51 153.84 100.88 152.25 106.27 C151.25 109.19 151.25 109.19 149.25 112.19 C148.53 114.52 147.88 116.84 147.25 119.19 C145.86 124.16 144.38 129 142.37 133.76 C140.2 139.01 138.67 144.4 137.11 149.86 C135.65 154.92 134 159.85 132.15 164.77 C130.31 169.68 128.69 174.65 127.25 179.69 C126.25 183.19 126.25 183.19 125.32 185.27 C123.83 188.78 122.97 191.08 123.91 194.85 C124.61 196.56 125.36 198.26 126.17 199.93 C128.03 203.84 128.03 203.84 128.25 206.19 C127.25 207.88 127.25 207.88 125.25 209.19 C122.02 209.78 122.02 209.78 118.18 210.13 C111.65 210.84 106.15 212.32 100.25 215.19 C99.46 215.57 98.67 215.95 97.86 216.34 C95.98 217.27 94.11 218.23 92.25 219.19 C88.55 216.73 88.47 215.36 87.25 211.19 C83.26 200.42 78.95 189.76 74.14 179.33 C73.02 176.66 72.15 173.94 71.25 171.19 C68.47 163.69 65.47 156.28 62.37 148.9 C61.42 146.62 60.53 144.33 59.68 142.01 C58.69 139.3 57.58 136.69 56.37 134.07 C54.08 129.01 52.31 123.8 50.47 118.56 C49.18 115.02 47.72 111.62 46.15 108.2 C44.97 105.58 44 102.9 43.02 100.2 C42.22 98.11 41.31 96.1 40.37 94.07 C38.08 89.01 36.31 83.8 34.47 78.56 C33.18 75.02 31.72 71.62 30.15 68.2 C28.98 65.59 28.01 62.92 27.03 60.23 C25.88 57.25 24.55 54.36 23.21 51.47 C22.25 49.19 22.25 49.19 21.38 46.54 C20.09 42.74 18.63 39.04 17.12 35.32 C16.84 34.63 16.57 33.94 16.28 33.23 C15.6 31.55 14.93 29.87 14.25 28.19 C14.2 50.63 14.16 73.06 14.14 95.5 C14.13 105.92 14.12 116.33 14.1 126.75 C14.08 135.83 14.06 144.91 14.06 153.99 C14.06 158.8 14.05 163.61 14.04 168.41 C14.02 172.94 14.02 177.47 14.02 181.99 C14.02 183.65 14.02 185.31 14.01 186.97 C14 189.24 14 191.51 14.01 193.78 C14 195.69 14 195.69 14 197.63 C14.33 202.44 15.73 206.65 17.25 211.19 C18.24 211.52 19.23 211.85 20.25 212.19 C20.25 212.85 20.25 213.51 20.25 214.19 C22.23 214.85 24.21 215.51 26.25 216.19 C25.92 217.18 25.59 218.17 25.25 219.19 C20.48 221.05 14.84 220.38 9.81 220.38 C8.77 220.39 7.73 220.4 6.67 220.42 C5.16 220.42 5.16 220.42 3.63 220.42 C2.71 220.43 1.8 220.43 0.86 220.44 C-1.99 220.17 -4.16 219.38 -6.75 218.19 C-5.75 215.19 -5.75 215.19 -3 213.57 C1.39 210.69 3.54 207.13 5.25 202.19 C5.98 196.27 5.93 190.39 5.89 184.42 C5.9 182.62 5.91 180.82 5.92 179.02 C5.94 174.16 5.93 169.29 5.92 164.42 C5.91 159.32 5.92 154.21 5.93 149.11 C5.93 140.54 5.92 131.97 5.9 123.4 C5.87 113.5 5.88 103.6 5.91 93.71 C5.93 85.2 5.93 76.69 5.92 68.18 C5.91 63.1 5.91 58.02 5.93 52.95 C5.94 48.17 5.93 43.4 5.9 38.62 C5.9 36.88 5.9 35.13 5.91 33.38 C5.97 23.42 5.84 15.23 -1.28 7.54 C-2.97 6 -4.67 5.13 -6.75 4.19 C-6.75 3.2 -6.75 2.21 -6.75 1.19 C-4.32 -0.02 -2.72 0.04 0 0 Z " fill="#000000" transform="translate(530.75341796875,606.80712890625)"/>
</svg>
